PathFileType	4	(X/Y/Z)	/Users/itak/Documents/Research/Walk-IL/dataset/trc/00439_00167.trc
DataRate	CameraRate	NumFrames	NumMarkers	Units	OrigDataRate	OrigDataStartFrame	OrigNumFrames
100.000000	100.000000	4	53	mm	100.000000	65	523
Frame#	Time	RPSI			LPSI			L3			STRN			T10			C7			CLAV			RBAK			LBAK			LSHO			LUPA			LAEL			LAOL			LWTS			LWPS			LFRA			LIFD			LHPS			LHTS			RSHO			RUPA			RAEL			RAOL			RWTS			RWPS			RFRA			RIFD			RHTS			RHPS			RBHD			LFHD			RFHD			LBHD			LHIP			RHIP			RASI			LASI			LKNE			LTHI			LANK			LTIP			LTOE			LMT1			LMT5			LHEE			RKNE			RTHI			RANK			RTIP			RTOE			RMT1			RMT5			RHEE			
		X1	Y1	Z1	X2	Y2	Z2	X3	Y3	Z3	X4	Y4	Z4	X5	Y5	Z5	X6	Y6	Z6	X7	Y7	Z7	X8	Y8	Z8	X9	Y9	Z9	X10	Y10	Z10	X11	Y11	Z11	X12	Y12	Z12	X13	Y13	Z13	X14	Y14	Z14	X15	Y15	Z15	X16	Y16	Z16	X17	Y17	Z17	X18	Y18	Z18	X19	Y19	Z19	X20	Y20	Z20	X21	Y21	Z21	X22	Y22	Z22	X23	Y23	Z23	X24	Y24	Z24	X25	Y25	Z25	X26	Y26	Z26	X27	Y27	Z27	X28	Y28	Z28	X29	Y29	Z29	X30	Y30	Z30	X31	Y31	Z31	X32	Y32	Z32	X33	Y33	Z33	X34	Y34	Z34	X35	Y35	Z35	X36	Y36	Z36	X37	Y37	Z37	X38	Y38	Z38	X39	Y39	Z39	X40	Y40	Z40	X41	Y41	Z41	X42	Y42	Z42	X43	Y43	Z43	X44	Y44	Z44	X45	Y45	Z45	X46	Y46	Z46	X47	Y47	Z47	X48	Y48	Z48	X49	Y49	Z49	X50	Y50	Z50	X51	Y51	Z51	X52	Y52	Z52	X53	Y53	Z53	

66	0.65	-1151.259033203125	974.03369140625	-439.0826721191406	-1077.229248046875	970.7037963867188	-560.7498779296875	-1104.157836914062	1065.026123046875	-478.7892456054688	-862.61376953125	1251.6953125	-354.9765319824219	-1116.706420898438	1188.373779296875	-489.918212890625	-1063.706176757812	1454.175659179688	-442.8526611328125	-891.9605102539062	1366.546752929688	-372.3521728515625	-1163.511474609375	1334.058349609375	-391.156982421875	-1046.541748046875	1411.857666015625	-546.879638671875	-916.162109375	1432.57421875	-567.3544311523438	-879.8310546875	1317.9453125	-664.2792358398438	-843.6027221679688	1103.389892578125	-691.8275146484375	-945.053466796875	1087.128173828125	-675.3667602539062	-793.6194458007812	900.8915405273438	-620.2254028320312	-805.06298828125	886.8505249023438	-692.5661010742188	-819.8319091796875	1016.233520507812	-693.0523071289062	-784.4317016601562	731.7021484375	-626.5004272460938	-798.0426635742188	806.1036987304688	-690.793212890625	-771.84423828125	811.9092407226562	-622.98681640625	-1074.87939453125	1419.329467773438	-269.92333984375	-1125.126586914062	1358.0234375	-210.4358215332031	-1145.942138671875	1070.986328125	-157.6977233886719	-1181.46435546875	1054.58740234375	-213.2787170410156	-1031.737915039062	872.0857543945312	-166.1155548095703	-1113.054077148438	854.5077514648438	-136.8320007324219	-1144.828979492188	1012.371765136719	-148.0741729736328	-1030.166625976562	712.790771484375	-162.0309753417969	-1020.036743164062	772.1525268554688	-150.7230987548828	-1093.712646484375	768.0082397460938	-134.0567016601562	-1038.844848632812	1647.70458984375	-331.2590026855469	-843.3909301757812	1670.0830078125	-396.7301940917969	-910.270263671875	1668.784912109375	-284.1676025390625	-961.9441528320312	1653.86376953125	-491.7939453125	-904.9039916992188	854.88427734375	-591.0091552734375	-1127.272705078125	862.5817260742188	-261.3017578125	-1004.204467773438	900.0144653320312	-260.4829711914062	-859.834716796875	893.781494140625	-473.287841796875	-915.1731567382812	430.0282897949219	-524.5757446289062	-885.8788452148438	582.8556518554688	-543.9189453125	-1037.878295898438	32.49139785766602	-577.2661743164062	-941.959716796875	274.6963195800781	-541.6109008789062	-893.0230102539062	44.84430694580078	-392.3279113769531	-968.5357055664062	51.39299774169922	-412.3792724609375	-907.1317138671875	47.70713806152344	-506.0527648925781	-1111.384521484375	35.08304214477539	-566.2738647460938	-1086.087890625	463.5585021972656	-276.3348693847656	-1094.56005859375	725.3587036132812	-230.3310546875	-1144.017211914062	39.13547515869141	-327.3529052734375	-1108.888061523438	319.3143615722656	-278.5843505859375	-936.740966796875	48.94089508056641	-261.3268432617188	-973.2854614257812	56.35062408447266	-322.0233154296875	-1041.1982421875	46.89262390136719	-238.3852996826172	-1176.575805664062	32.84280395507812	-402.0111999511719	
67	0.66	-1149.8056640625	972.9525146484375	-439.103271484375	-1075.93212890625	969.9210205078125	-560.8939819335938	-1102.835083007812	1064.520751953125	-479.2208251953125	-861.08349609375	1251.164306640625	-355.2308959960938	-1115.199951171875	1187.9169921875	-490.3409729003906	-1062.0908203125	1453.680908203125	-443.0466003417969	-890.4396362304688	1366.01904296875	-372.5585327148438	-1161.967407226562	1333.557739257812	-391.4906921386719	-1044.84228515625	1411.418090820312	-547.1484375	-914.43310546875	1432.10009765625	-567.512451171875	-877.8211669921875	1317.394897460938	-664.3020629882812	-841.5577392578125	1102.669921875	-691.273681640625	-943.0552368164062	1086.530517578125	-675.1802978515625	-792.1550903320312	900.0554809570312	-619.5835571289062	-803.3912353515625	886.0471801757812	-691.9361572265625	-817.8973999023438	1015.483642578125	-692.4400024414062	-783.2772216796875	730.8333740234375	-625.849609375	-796.554443359375	805.2947998046875	-690.1760864257812	-770.6278686523438	811.0824584960938	-622.3692626953125	-1073.339477539062	1418.689697265625	-270.1360168457031	-1123.638793945312	1357.38671875	-210.7408142089844	-1145.0302734375	1070.503295898438	-157.9055328369141	-1180.459838867188	1054.106079101562	-213.5590057373047	-1031.078735351562	871.450439453125	-165.8805084228516	-1112.4501953125	853.9714965820312	-136.8396606445312	-1144.039428710938	1011.898864746094	-148.1925506591797	-1029.7001953125	712.1447143554688	-161.7122039794922	-1019.547546386719	771.5219116210938	-150.3872833251953	-1093.257080078125	767.4810180664062	-133.8947906494141	-1036.9130859375	1647.087646484375	-331.1221923828125	-841.4632568359375	1669.385620117188	-396.6373596191406	-908.3180541992188	1668.023071289062	-284.0540466308594	-960.1011352539062	1653.378295898438	-491.6757507324219	-903.430419921875	854.5511474609375	-591.3111572265625	-1125.2060546875	861.8312377929688	-260.89990234375	-1002.231567382812	899.6993408203125	-260.6587524414062	-858.2815551757812	893.4462890625	-473.6799926757812	-914.0894775390625	429.672607421875	-524.61279296875	-884.59912109375	582.5182495117188	-543.9517211914062	-1037.821411132812	32.52602767944336	-577.2451782226562	-941.2088012695312	274.4285583496094	-541.6309814453125	-892.9926147460938	44.54096221923828	-392.2187805175781	-968.5147094726562	51.20529556274414	-412.3610229492188	-906.9647827148438	47.60284805297852	-506.1101379394531	-1111.319458007812	35.15724182128906	-566.3045043945312	-1081.7255859375	463.08251953125	-273.9422912597656	-1091.601684570312	724.9219970703125	-229.3954772949219	-1143.835571289062	39.50733184814453	-327.2992248535156	-1105.937622070312	319.0588684082031	-276.9614868164062	-936.6292114257812	48.76260757446289	-261.1508178710938	-973.1821899414062	56.34618377685547	-321.7919006347656	-1041.176025390625	46.80402374267578	-238.1997985839844	-1176.367309570312	33.56935501098633	-401.9276123046875	
68	0.67	-1148.332153320312	971.8092651367188	-439.0940551757812	-1074.658569335938	969.0963134765625	-561.0294799804688	-1101.51171875	1063.97509765625	-479.6407470703125	-859.544921875	1250.596313476562	-355.4779052734375	-1113.65771484375	1187.411010742188	-490.7626953125	-1060.4541015625	1453.150756835938	-443.2489318847656	-888.90576171875	1365.452758789062	-372.7598571777344	-1160.416137695312	1333.008544921875	-391.8482666015625	-1043.109375	1410.950073242188	-547.4319458007812	-912.666748046875	1431.575317382812	-567.6641845703125	-875.7403564453125	1316.793090820312	-664.2855224609375	-839.4483642578125	1101.88330078125	-690.6866455078125	-940.9900512695312	1085.881103515625	-674.9934692382812	-790.6461181640625	899.157470703125	-618.8717041015625	-801.6494750976562	885.1846313476562	-691.2327270507812	-815.8934936523438	1014.672485351562	-691.771240234375	-782.1085205078125	729.9033813476562	-625.0892333984375	-794.9942626953125	804.4276733398438	-689.4508666992188	-769.4189453125	810.1995239257812	-621.6646118164062	-1071.792114257812	1418.000244140625	-270.3611755371094	-1122.14208984375	1356.681518554688	-211.0561370849609	-1144.077880859375	1069.9697265625	-158.1063385009766	-1179.422241210938	1053.567504882812	-213.8217926025391	-1030.414306640625	870.7501220703125	-165.6204833984375	-1111.847778320312	853.3827514648438	-136.8253021240234	-1143.208862304688	1011.368286132812	-148.3130493164062	-1029.246459960938	711.4329833984375	-161.34375	-1019.066772460938	770.8223266601562	-150.0240478515625	-1092.807373046875	766.8978271484375	-133.6977996826172	-1034.9169921875	1646.448364257812	-330.9458923339844	-839.4616088867188	1668.59716796875	-396.4973449707031	-906.2864990234375	1667.177856445312	-283.8992919921875	-958.17431640625	1652.879760742188	-491.5180053710938	-901.956298828125	854.2197875976562	-591.6214599609375	-1123.084228515625	861.0227661132812	-260.4624328613281	-1000.175720214844	899.3313598632812	-260.7963562011719	-856.6944580078125	893.108154296875	-474.048583984375	-913.0609130859375	429.3139953613281	-524.6866455078125	-883.3291625976562	582.1911010742188	-543.9981079101562	-1037.760498046875	32.57602691650391	-577.209716796875	-940.4610595703125	274.1878662109375	-541.6845092773438	-892.8904418945312	44.21986389160156	-392.1166381835938	-968.4869995117188	51.04253387451172	-412.3387145996094	-906.7827758789062	47.48749160766602	-506.1806640625	-1111.254028320312	35.24743270874023	-566.316650390625	-1077.207763671875	462.624267578125	-271.4637451171875	-1088.58349609375	724.4596557617188	-228.4254608154297	-1143.62548828125	39.99431991577148	-327.2109680175781	-1102.8544921875	318.8371887207031	-275.2543029785156	-936.495849609375	48.56961059570312	-260.9618835449219	-973.0410766601562	56.32804107666016	-321.5458068847656	-1041.14208984375	46.71652984619141	-237.9974822998047	-1176.141357421875	34.4740104675293	-401.8170166015625	
69	0.68	-1146.828125	970.6315307617188	-439.05712890625	-1073.39892578125	968.2302856445312	-561.1525268554688	-1100.181396484375	1063.397827148438	-480.0317687988281	-858.0020751953125	1250.005249023438	-355.7116088867188	-1112.070434570312	1186.861572265625	-491.1711120605469	-1058.801025390625	1452.596801757812	-443.4595947265625	-887.3604736328125	1364.86572265625	-372.9571228027344	-1158.863647460938	1332.420532226562	-392.2275085449219	-1041.3525390625	1410.462158203125	-547.72705078125	-910.8726806640625	1431.0078125	-567.8115234375	-873.5997924804688	1316.141723632812	-664.2268676757812	-837.2730102539062	1101.039916992188	-690.0618286132812	-938.8660888671875	1085.181884765625	-674.8038330078125	-789.0938110351562	898.2025756835938	-618.0829467773438	-799.8353881835938	884.2756958007812	-690.4519653320312	-813.826171875	1013.808654785156	-691.0413208007812	-780.9202270507812	728.9288940429688	-624.2205810546875	-793.3587036132812	803.515869140625	-688.615234375	-768.2159423828125	809.265380859375	-620.860107421875	-1070.24609375	1417.273315429688	-270.59814453125	-1120.646362304688	1355.917602539062	-211.3825988769531	-1143.084228515625	1069.392578125	-158.3041534423828	-1178.347900390625	1052.982055664062	-214.0723266601562	-1029.741821289062	869.9949340820312	-165.3478546142578	-1111.253784179688	852.7544555664062	-136.7840270996094	-1142.335693359375	1010.788269042969	-148.4451293945312	-1028.800659179688	710.6671142578125	-160.9305267333984	-1018.588928222656	770.0648193359375	-149.6384429931641	-1092.362670898438	766.2714233398438	-133.4683074951172	-1032.858154296875	1645.806030273438	-330.7286071777344	-837.3855590820312	1667.727172851562	-396.3083801269531	-904.1804809570312	1666.257202148438	-283.7022399902344	-956.1619873046875	1652.388061523438	-491.31982421875	-900.464111328125	853.8878173828125	-591.92822265625	-1120.898803710938	860.1773071289062	-259.9975280761719	-998.0186767578125	898.9275512695312	-260.8747253417969	-855.0684814453125	892.769287109375	-474.3848571777344	-912.104248046875	428.9581909179688	-524.7952880859375	-882.0867919921875	581.8761596679688	-544.055419921875	-1037.698608398438	32.63852691650391	-577.16162109375	-939.7377319335938	273.9604797363281	-541.761474609375	-892.7293090820312	43.89677429199219	-392.0254821777344	-968.4566040039062	50.90516662597656	-412.3092346191406	-906.6005859375	47.36953353881836	-506.2511291503906	-1111.191162109375	35.34637832641602	-566.3146362304688	-1072.592041015625	462.2034301757812	-268.947021484375	-1085.525146484375	723.9878540039062	-227.4419097900391	-1143.388427734375	40.59621047973633	-327.0868225097656	-1099.680297851562	318.6731872558594	-273.4948120117188	-936.340087890625	48.37265396118164	-260.7672119140625	-972.8600463867188	56.29875564575195	-321.2929992675781	-1041.093994140625	46.63372802734375	-237.7849731445312	-1175.9033203125	35.56768035888672	-401.6795043945312	
